<svg width="31" height="31" viewBox="0 0 31 31" fill="none" xmlns="http://www.w3.org/2000/svg">
<path d="M3.10235 21.2269L1.69883 22.6305C1.13204 23.1972 0.819825 23.9509 0.819825 24.7525C0.819825 25.5541 1.13204 26.3078 1.69883 26.8745L4.66341 29.8393C5.83353 31.0092 7.73732 31.0094 8.90757 29.8393L27.6402 11.1066C27.7503 10.9964 27.8333 10.8621 27.8824 10.7143L30.7686 2.03604C30.8883 1.67621 30.7945 1.27972 30.5264 1.01158C30.3354 0.820646 30.0795 0.718134 29.8179 0.718134C29.7122 0.718134 29.6055 0.734898 29.502 0.769358L20.8237 3.6556C20.676 3.70476 20.5416 3.7877 20.4315 3.89783L4.51909 19.8103L3.10235 21.2269ZM7.49089 28.4225C7.10195 28.8115 6.46904 28.8115 6.08009 28.4225L3.11544 25.4578C2.92704 25.2694 2.82327 25.0189 2.82327 24.7524C2.82327 24.486 2.92704 24.2355 3.11544 24.047L5.51063 21.6518L9.88601 26.0273L7.49089 28.4225ZM26.3754 8.89724L22.6408 5.16264L28.2363 3.30165L26.3754 8.89724ZM21.3759 5.78673L25.7513 10.1621L10.8305 25.0829L6.45508 20.7075L21.3759 5.78673Z" fill="white"/>
</svg>
